<?xml version="1.0" encoding="UTF-8" standalone="no"?>
<svg
   xmlns:dc="http://purl.org/dc/elements/1.1/"
   xmlns:cc="http://creativecommons.org/ns#"
   xmlns:rdf="http://www.w3.org/1999/02/22-rdf-syntax-ns#"
   xmlns:svg="http://www.w3.org/2000/svg"
   xmlns="http://www.w3.org/2000/svg"
   xmlns:xlink="http://www.w3.org/1999/xlink"
   xmlns:sodipodi="http://sodipodi.sourceforge.net/DTD/sodipodi-0.dtd"
   xmlns:inkscape="http://www.inkscape.org/namespaces/inkscape"
   height="60"
   width="44"
   version="1.1"
   id="svg43"
   sodipodi:docname="kde-logo-bluegradient-w-slug-vectorized.svg"
   inkscape:version="0.92.4 5da689c313, 2019-01-14"
   inkscape:export-filename="/home/paul/Documents/Servicios_Editoriales/KDE/NextCloud/Promo Team Resources/0000_Assets/Artwork/Logos/kde-logo-bluegradient-w-slug-vectorized-94x128.svg.png"
   inkscape:export-xdpi="204"
   inkscape:export-ydpi="204">
  <metadata
     id="metadata49">
    <rdf:RDF>
      <cc:Work
         rdf:about="">
        <dc:format>image/svg+xml</dc:format>
        <dc:type
           rdf:resource="http://purl.org/dc/dcmitype/StillImage" />
        <dc:title />
      </cc:Work>
    </rdf:RDF>
  </metadata>
  <defs
     id="defs47">
    <linearGradient
       inkscape:collect="always"
       xlink:href="#e"
       id="linearGradient978"
       x1="77"
       y1="5"
       x2="117"
       y2="45"
       gradientUnits="userSpaceOnUse"
       gradientTransform="matrix(1.1,0,0,1.5,-85.8,-9)" />
    <linearGradient
       id="linearGradient1079"
       gradientTransform="matrix(1.0454421,0,0,1.0298842,46.076843,3.856842)"
       gradientUnits="userSpaceOnUse"
       x1="-45.221867"
       x2="0.69172603"
       y1="-4.91011"
       y2="41.697075">
      <stop
         offset="0"
         stop-color="#2bc0ff"
         id="stop10-6" />
      <stop
         offset="1"
         stop-color="#1d99f3"
         id="stop12-1" />
    </linearGradient>
  </defs>
  <sodipodi:namedview
     pagecolor="#ffffff"
     bordercolor="#666666"
     borderopacity="1"
     objecttolerance="10"
     gridtolerance="10"
     guidetolerance="10"
     inkscape:pageopacity="0"
     inkscape:pageshadow="2"
     inkscape:window-width="2560"
     inkscape:window-height="1026"
     id="namedview45"
     showgrid="false"
     showborder="false"
     inkscape:snap-text-baseline="true"
     inkscape:current-layer="svg43"
     fit-margin-top="0"
     fit-margin-left="0"
     fit-margin-right="0"
     fit-margin-bottom="0"
     inkscape:zoom="3.4766084"
     inkscape:cx="7.2640221"
     inkscape:cy="-17.884919"
     inkscape:window-x="1920"
     inkscape:window-y="0"
     inkscape:window-maximized="1">
    <inkscape:grid
       type="xygrid"
       id="grid950"
       originx="-2"
       originy="14" />
  </sodipodi:namedview>
  <linearGradient
     id="a">
    <stop
       offset="0"
       id="stop2" />
    <stop
       offset="1"
       stop-opacity="0"
       id="stop4" />
  </linearGradient>
  <linearGradient
     id="b"
     gradientUnits="userSpaceOnUse"
     x1="16"
     x2="34.942001"
     xlink:href="#a"
     y1="11"
     y2="29.941999" />
  <linearGradient
     id="c"
     gradientTransform="rotate(45)"
     gradientUnits="userSpaceOnUse"
     x1="31.021"
     x2="43.104"
     xlink:href="#a"
     y1="-9.8959999"
     y2="-9.8959999" />
  <linearGradient
     id="d"
     gradientUnits="userSpaceOnUse"
     x1="23.716"
     x2="26.348"
     xlink:href="#a"
     y1="13.219"
     y2="15.851" />
  <linearGradient
     id="e"
     gradientTransform="matrix(1.0454421,0,0,1.0298842,46.076843,3.856842)"
     gradientUnits="userSpaceOnUse"
     x1="-45.221867"
     x2="0.69172603"
     y1="-4.91011"
     y2="41.697075">
    <stop
       offset="0"
       stop-color="#2bc0ff"
       id="stop10" />
    <stop
       offset="1"
       stop-color="#1d99f3"
       id="stop12" />
  </linearGradient>
  <rect
     style="fill:url(#linearGradient978);fill-opacity:1;fill-rule:evenodd;stroke-width:1"
     id="rect970"
     width="44"
     height="60"
     x="0"
     y="0"
     rx="5"
     ry="5" />
  <g
     id="g982"
     transform="translate(-2,-2)">
    <path
       id="path37"
       d="m 15.208984,14.617188 c -0.123062,-0.0059 -0.241909,0.03097 -0.339843,0.128906 l -2.123047,2.123047 c -0.195869,0.195869 -0.195869,0.511162 0,0.707031 l 2.193359,3.445312 c -0.175549,0.354193 -0.327571,0.719568 -0.455078,1.09375 L 10.5,23 C 10.223,23 10,23.223 10,23.5 v 3 c 0,0.277 0.229596,0.43991 0.5,0.5 l 3.986328,0.886719 c 0.12346,0.370523 0.270907,0.732616 0.441406,1.083984 l -2.197265,3.453125 c -0.148715,0.233695 -0.195869,0.511162 0,0.707031 l 2.121093,2.123047 c 0.19587,0.195869 0.511163,0.195869 0.707032,0 l 3.453125,-2.199218 c 0.357212,0.177942 0.725864,0.331927 1.103515,0.460937 L 21,37.5 c 0,0.277 0.223,0.5 0.5,0.5 h 3 c 0.277,0 0.43991,-0.229596 0.5,-0.5 l 0.886719,-3.986328 c 0.376029,-0.125362 0.743365,-0.275428 1.099609,-0.449219 l 3.4375,2.189453 c 0.195869,0.195869 0.511162,0.195869 0.707031,0 l 2.123047,-2.123047 c 0.195869,-0.195869 0.148715,-0.473336 0,-0.707031 l -0.9375,-1.472656 -0.699218,0.279297 -2.240235,-3.359375 C 28.247974,30.381473 25.752561,31.997186 23,32 c -3.865993,0 -7,-3.134007 -7,-7 0.0031,-2.700827 1.559779,-5.15891 4,-6.316406 V 16.53125 c -0.336475,0.11516 -0.665829,0.250162 -0.986328,0.404297 l -3.4375,-2.189453 c -0.116848,-0.07436 -0.244125,-0.123012 -0.367188,-0.128906 z"
       inkscape:connector-curvature="0"
       style="fill:#ffffff" />
    <path
       id="path39"
       d="m 26,10 -5,0.462891 V 30 l 5,-1 v -8 l 6,9 5,-2 L 30.5,19.585938 37.003906,11 31.767578,10 26,18.5 Z"
       inkscape:connector-curvature="0"
       style="fill:#ffffff" />
  </g>
  <g
     aria-label="KDE"
     style="font-style:normal;font-variant:normal;font-weight:normal;font-stretch:normal;font-size:13.33333302px;line-height:1.25;font-family:'Fira Code';-inkscape-font-specification:'Fira Code';letter-spacing:0px;word-spacing:0px;fill:#fcfcfc;fill-opacity:1;stroke:none;stroke-width:0.99999994"
     id="text819-3">
    <path
       d="M 16.352,52 H 14.656 L 10.608,46.544 9.44,47.568 V 52 H 8 V 40.576 h 1.44 v 5.632 q 0.48,-0.544 0.976,-1.088 0.496,-0.544 0.992,-1.088 l 3.088,-3.456 h 1.68 l -4.528,4.976 z"
       style="font-style:normal;font-variant:normal;font-weight:normal;font-stretch:normal;font-size:16px;font-family:'Noto Sans';-inkscape-font-specification:'Noto Sans';fill:#fcfcfc;stroke-width:0.99999994"
       id="path8503"
       inkscape:connector-curvature="0" />
    <path
       d="m 27.055992,46.176 q 0,2.896 -1.584,4.368 -1.568,1.456 -4.384,1.456 h -3.184 V 40.576 h 3.52 q 1.728,0 2.992,0.64 1.264,0.64 1.952,1.888 0.688,1.232 0.688,3.072 z m -1.52,0.048 q 0,-2.288 -1.136,-3.344 -1.12,-1.072 -3.184,-1.072 h -1.872 v 8.96 h 1.552 q 4.64,0 4.64,-4.544 z"
       style="font-style:normal;font-variant:normal;font-weight:normal;font-stretch:normal;font-size:16px;font-family:'Noto Sans';-inkscape-font-specification:'Noto Sans';fill:#fcfcfc;stroke-width:0.99999994"
       id="path8505"
       inkscape:connector-curvature="0" />
    <path
       d="m 35.967984,52 h -6.384 V 40.576 h 6.384 v 1.264 h -4.944 v 3.568 h 4.656 v 1.248 h -4.656 v 4.08 h 4.944 z"
       style="font-style:normal;font-variant:normal;font-weight:normal;font-stretch:normal;font-size:16px;font-family:'Noto Sans';-inkscape-font-specification:'Noto Sans';fill:#fcfcfc;stroke-width:0.99999994"
       id="path8507"
       inkscape:connector-curvature="0" />
  </g>
  <flowRoot
     xml:space="preserve"
     id="flowRoot4792"
     style="font-style:normal;font-weight:normal;font-size:40px;line-height:1.25;font-family:sans-serif;letter-spacing:0px;word-spacing:0px;fill:#000000;fill-opacity:1;stroke:none"
     transform="translate(-2,-2)"><flowRegion
       id="flowRegion4794"><rect
         id="rect4796"
         width="93.966103"
         height="112.67796"
         x="-121.62712"
         y="-33.559322" /></flowRegion><flowPara
       id="flowPara4798" /></flowRoot></svg>
